<svg xmlns="http://www.w3.org/2000/svg" xmlns:xlink="http://www.w3.org/1999/xlink" width="500" zoomAndPan="magnify" viewBox="0 0 375 374.999991" height="500" preserveAspectRatio="xMidYMid meet" version="1.0"><defs><g/><clipPath id="43ad16f3d8"><path d="M 117 245 L 259.449219 245 L 259.449219 314.960938 L 117 314.960938 Z M 117 245 " clip-rule="nonzero"/></clipPath><clipPath id="634c32ca36"><path d="M 151.933594 98.621094 L 230.683594 98.621094 L 230.683594 211.121094 L 151.933594 211.121094 Z M 151.933594 98.621094 " clip-rule="nonzero"/></clipPath><clipPath id="a2ea335ec5"><path d="M 130.96875 61.089844 L 244.21875 61.089844 L 244.21875 171 L 130.96875 171 Z M 130.96875 61.089844 " clip-rule="nonzero"/></clipPath></defs><g clip-path="url(#43ad16f3d8)"><path fill="#ffffff" d="M 184.171875 280.820312 C 182.640625 278.9375 180.371094 277.847656 177.929688 278.054688 C 175.277344 278.289062 173.070312 280.054688 171.390625 282.292969 C 171.214844 282.410156 171.066406 282.527344 170.921875 282.707031 C 169.390625 284.472656 167.859375 287.300781 165.355469 287.828125 C 163.292969 288.269531 163.089844 284.855469 163.03125 283.5 C 162.914062 281.46875 160.4375 280.703125 159.027344 282.175781 C 155.550781 285.828125 152.902344 290.097656 150.988281 294.71875 C 151.015625 294.394531 151.074219 294.070312 151.105469 293.746094 C 151.988281 287.769531 153.875 281.617188 157.054688 276.464844 C 158.644531 273.902344 154.609375 271.929688 153.078125 274.375 C 149.398438 280.113281 146.628906 286.179688 145.511719 292.980469 C 144.453125 299.460938 144.15625 307.085938 147.101562 313.148438 C 148.101562 315.242188 151.488281 314.003906 151.429688 311.882812 C 151.429688 311.824219 151.429688 311.765625 151.429688 311.707031 C 151.429688 311.679688 151.429688 311.679688 151.429688 311.648438 C 152.460938 303.667969 154.460938 295.691406 159.054688 289.09375 C 159.878906 291.125 161.46875 292.6875 164.207031 292.777344 C 165.296875 292.804688 166.355469 292.597656 167.359375 292.1875 C 166.710938 295.984375 166.945312 300.046875 168.59375 303.492188 C 170.039062 306.496094 173.511719 305.996094 175.71875 304.109375 C 177.691406 302.433594 179.371094 300.285156 180.785156 298.164062 C 180.84375 298.074219 180.902344 297.988281 180.960938 297.898438 C 180.84375 299.164062 180.753906 300.429688 180.695312 301.726562 C 180.609375 303.667969 180.519531 305.699219 181.195312 307.554688 C 181.902344 309.527344 185.054688 308.734375 185.582031 306.9375 C 186.703125 303.082031 186.40625 298.695312 186.789062 294.6875 C 187.203125 290.332031 187.96875 286.0625 188.585938 281.734375 C 188.882812 279.261719 185.730469 279.527344 184.171875 280.820312 Z M 178.695312 292.777344 C 177.808594 294.425781 176.78125 296.015625 175.660156 297.488281 C 175.132812 298.191406 174.601562 298.871094 173.984375 299.519531 C 173.804688 299.722656 173.628906 299.902344 173.453125 300.078125 C 173.1875 299.3125 173.070312 298.3125 172.980469 297.898438 C 172.6875 296.515625 172.539062 295.101562 172.597656 293.6875 C 172.6875 290.890625 173.335938 288.183594 174.542969 285.648438 C 175.042969 284.589844 175.75 283.472656 176.574219 282.589844 C 177.367188 281.734375 178.398438 281.851562 179.429688 282.558594 C 180.785156 283.472656 181.34375 284.882812 181.785156 286.355469 C 180.8125 288.566406 179.78125 290.714844 178.695312 292.777344 Z M 251.535156 277.613281 C 253.773438 273.902344 255.597656 269.925781 256.925781 265.777344 C 258.335938 261.417969 259.425781 256.707031 259.28125 252.113281 C 259.21875 250.140625 259.21875 247.433594 257.628906 245.992188 C 255.953125 244.460938 253.597656 245.019531 251.976562 246.3125 C 248.855469 248.847656 246.941406 253.292969 245.617188 257.003906 C 244.175781 261.09375 243.320312 265.394531 242.527344 269.632812 C 242.027344 272.253906 241.585938 274.902344 241.171875 277.554688 C 240.757812 277.878906 240.4375 278.320312 240.199219 278.878906 C 237.699219 284.589844 236.253906 291.039062 232.398438 296.101562 C 231.71875 296.957031 230.957031 297.839844 230.070312 298.488281 C 229.628906 298.8125 229.101562 299.136719 228.601562 299.371094 C 228.363281 299.488281 227.332031 299.753906 227.6875 299.695312 C 226.507812 299.84375 225.214844 299.578125 224.300781 298.371094 C 223.507812 297.339844 223.242188 295.867188 222.945312 294.628906 C 222.621094 293.335938 222.386719 292.011719 222.300781 290.683594 C 223.183594 291.097656 224.183594 291.304688 225.359375 291.246094 C 228.421875 291.125 231.339844 289.300781 232.75 286.5625 C 234.195312 283.738281 234.371094 280.027344 232.898438 277.171875 C 231.339844 274.136719 228.070312 272.195312 224.683594 273.460938 C 221.210938 274.757812 218.707031 278.140625 217.558594 281.558594 C 216.824219 283.765625 216.410156 286.0625 216.320312 288.359375 C 215.617188 288.949219 214.820312 289.390625 213.9375 289.332031 C 212.582031 289.210938 212.347656 287.945312 212.113281 286.796875 C 211.226562 282.851562 211.109375 278.730469 211.347656 274.726562 C 211.433594 273.167969 209.933594 271.929688 208.460938 271.960938 C 206.8125 271.988281 205.722656 273.3125 205.574219 274.875 C 205.308594 277.613281 205.28125 280.378906 204.78125 283.058594 C 204.25 285.886719 203.601562 288.683594 202.835938 291.449219 C 201.953125 294.628906 200.980469 297.898438 199.390625 300.84375 C 199.332031 300.605469 199.273438 300.402344 199.246094 300.164062 C 198.683594 297.898438 198.273438 295.574219 198.007812 293.246094 C 197.417969 288.476562 197.273438 283.675781 196.449219 278.9375 C 196.242188 277.816406 194.945312 277.171875 193.914062 277.347656 C 192.738281 277.554688 191.972656 278.464844 191.882812 279.644531 C 191.472656 285.121094 191.796875 290.625 192.5625 296.042969 C 192.914062 298.605469 193.503906 301.109375 194.0625 303.609375 C 194.535156 305.90625 195.152344 307.96875 197.332031 309.203125 C 198.390625 309.824219 200.011719 309.558594 200.835938 308.617188 C 204.664062 304.257812 206.371094 298.632812 207.722656 293.097656 C 207.8125 292.804688 207.871094 292.480469 207.929688 292.1875 C 209.519531 294.277344 212.050781 295.191406 214.671875 294.71875 C 215.410156 294.570312 216.058594 294.335938 216.703125 294.011719 C 216.761719 294.367188 216.824219 294.71875 216.882812 295.070312 C 217.617188 298.8125 218.855469 302.757812 222.59375 304.492188 C 225.683594 305.90625 228.921875 305.464844 231.839844 303.875 C 235.636719 301.785156 238.199219 297.988281 240.082031 294.1875 C 240.113281 294.160156 240.113281 294.101562 240.140625 294.070312 C 240.199219 295.21875 240.289062 296.339844 240.40625 297.488281 C 240.847656 301.34375 241.703125 305.140625 243.644531 308.558594 C 245.53125 311.855469 248.269531 314.886719 252.390625 313.945312 C 253.980469 313.589844 255.1875 310.589844 253.15625 309.941406 C 251.625 309.46875 250.003906 307.261719 249.09375 305.699219 C 248.589844 304.875 248.148438 304.023438 247.796875 303.140625 C 247.855469 303.285156 247.503906 302.195312 247.503906 302.195312 C 247.207031 301.167969 246.972656 300.136719 246.765625 299.078125 C 245.792969 294.1875 245.824219 289.152344 246.265625 284.179688 C 248.5625 282.707031 250.210938 279.761719 251.535156 277.613281 Z M 251.683594 256.355469 C 252.183594 254.910156 252.800781 253.5 253.507812 252.171875 C 253.773438 251.703125 254.007812 251.203125 254.273438 250.761719 C 254.304688 250.90625 254.332031 251.023438 254.363281 251.113281 C 254.390625 251.496094 254.421875 251.847656 254.449219 252.230469 C 254.480469 253.175781 254.449219 254.117188 254.390625 255.03125 C 254.246094 257.0625 253.890625 259.0625 253.390625 261.035156 C 252.449219 264.804688 251.152344 268.515625 249.445312 271.988281 C 248.796875 273.3125 248.089844 274.578125 247.324219 275.84375 C 248.328125 269.25 249.476562 262.597656 251.683594 256.355469 Z M 223.769531 281.351562 C 224.242188 280.496094 224.949219 279.761719 225.714844 279.113281 C 225.980469 278.878906 226.273438 278.582031 226.746094 278.40625 C 226.363281 278.554688 227.128906 278.582031 226.863281 278.464844 C 228.453125 279.289062 228.777344 280.46875 228.746094 282.292969 C 228.71875 283.292969 228.539062 284.324219 227.953125 285.148438 C 227.570312 285.710938 227.039062 286.0625 226.449219 286.238281 C 225.921875 286.414062 224.859375 286.59375 224.152344 286.269531 C 223.625 286.03125 223.09375 285.355469 222.683594 284.679688 C 222.859375 283.472656 223.242188 282.351562 223.769531 281.351562 Z M 200.1875 304.257812 C 200.246094 304.316406 200.214844 304.347656 200.1875 304.257812 Z M 154.636719 250.199219 C 150.753906 251.023438 147.011719 252.4375 143.421875 254.085938 C 142.863281 256.238281 141.976562 258.355469 141.269531 260.445312 C 140.476562 262.773438 139.742188 265.128906 139.09375 267.484375 C 137.769531 272.222656 136.707031 277.082031 135.972656 281.96875 C 135.265625 286.796875 134.882812 291.6875 134.824219 296.574219 C 134.792969 299.046875 134.824219 301.519531 134.941406 303.992188 C 135.058594 306.4375 135.53125 308.96875 135.472656 311.414062 C 135.441406 312.355469 134.910156 313.445312 134.027344 313.855469 C 133.292969 314.210938 132.585938 314.417969 131.820312 314.238281 C 131.585938 314.210938 131.347656 314.121094 131.113281 314.003906 C 131.085938 314.003906 131.054688 313.972656 131.023438 313.972656 C 130.289062 313.589844 129.816406 312.796875 129.757812 311.972656 C 129.140625 309.882812 129.257812 307.320312 129.140625 305.230469 C 128.992188 302.578125 128.964844 299.929688 128.992188 297.28125 C 129.082031 292.070312 129.523438 286.917969 130.289062 281.765625 C 131.023438 276.699219 132.085938 271.695312 133.5 266.777344 C 134.234375 264.246094 135.058594 261.742188 136 259.269531 C 136.238281 258.621094 136.5 257.972656 136.738281 257.324219 C 130.964844 260.152344 124.902344 262.683594 118.304688 261.652344 C 115.566406 261.242188 117.863281 257.828125 119.867188 258.089844 C 126.726562 259.035156 133.117188 255.441406 139.121094 252.320312 C 139.210938 252.203125 139.269531 252.085938 139.359375 251.9375 C 140.003906 250.996094 141.066406 250.671875 141.976562 250.878906 C 142.097656 250.820312 142.242188 250.761719 142.359375 250.703125 C 146.984375 248.550781 151.8125 246.753906 156.816406 245.84375 C 161.558594 244.988281 167.5625 244.546875 171.980469 246.84375 C 174.160156 247.992188 171.628906 250.703125 169.890625 250.40625 C 167.242188 249.996094 164.679688 249.40625 161.96875 249.375 C 159.496094 249.347656 157.054688 249.671875 154.636719 250.199219 Z M 154.636719 250.199219 " fill-opacity="1" fill-rule="nonzero"/></g><g clip-path="url(#634c32ca36)"><path fill="#006e99" d="M 191.296875 98.621094 C 169.566406 98.621094 151.9375 116.25 151.9375 137.980469 C 151.9375 167.503906 191.296875 211.085938 191.296875 211.085938 C 191.296875 211.085938 230.660156 167.503906 230.660156 137.980469 C 230.660156 116.25 213.03125 98.621094 191.296875 98.621094 Z M 191.296875 152.039062 C 183.539062 152.039062 177.242188 145.742188 177.242188 137.980469 C 177.242188 130.222656 183.539062 123.921875 191.296875 123.921875 C 199.058594 123.921875 205.355469 130.222656 205.355469 137.980469 C 205.355469 145.742188 199.058594 152.039062 191.296875 152.039062 Z M 191.296875 152.039062 " fill-opacity="1" fill-rule="nonzero"/></g><g clip-path="url(#a2ea335ec5)"><path fill="#16aee8" d="M 239.085938 110.058594 C 236.667969 108.25 227.6875 99.378906 214.914062 109.59375 C 212.085938 111.648438 210.65625 112.984375 210.65625 112.984375 C 210.65625 112.984375 189.984375 75.144531 130.953125 61.226562 C 130.953125 61.226562 201.074219 89.367188 205.167969 170.402344 C 225.359375 146.34375 228.328125 116.988281 236.492188 115.679688 C 241.339844 114.902344 244.011719 117.632812 244.011719 117.632812 C 244.011719 117.632812 243.640625 113.460938 239.085938 110.058594 " fill-opacity="1" fill-rule="nonzero"/></g><path fill="#16aee8" d="M 202.28125 178.648438 L 201.875 170.566406 C 201.53125 163.824219 200.71875 157.289062 199.445312 150.964844 L 163.238281 170.402344 C 163.238281 170.402344 181.199219 191.40625 202.28125 178.648438 " fill-opacity="1" fill-rule="nonzero"/><path fill="#0d8bbb" d="M 163.238281 170.402344 L 190.964844 210.984375 L 202.28125 178.648438 C 181.199219 191.40625 163.238281 170.402344 163.238281 170.402344 " fill-opacity="1" fill-rule="nonzero"/><g fill="#16aee8" fill-opacity="1"><g transform="translate(103.398591, 245.470882)"><g><path d="M 14.796875 -18.984375 L 14.796875 -15.90625 L 9.734375 -15.90625 L 9.734375 0 L 5.9375 0 L 5.9375 -15.90625 L 0.875 -15.90625 L 0.875 -18.984375 Z M 14.796875 -18.984375 "/></g></g></g><g fill="#16aee8" fill-opacity="1"><g transform="translate(119.092536, 245.470882)"><g><path d="M 11.671875 0 L 7.484375 -7.40625 L 5.6875 -7.40625 L 5.6875 0 L 1.875 0 L 1.875 -18.984375 L 9 -18.984375 C 10.46875 -18.984375 11.71875 -18.722656 12.75 -18.203125 C 13.789062 -17.691406 14.566406 -16.992188 15.078125 -16.109375 C 15.597656 -15.234375 15.859375 -14.253906 15.859375 -13.171875 C 15.859375 -11.921875 15.492188 -10.789062 14.765625 -9.78125 C 14.046875 -8.769531 12.96875 -8.078125 11.53125 -7.703125 L 16.078125 0 Z M 5.6875 -10.25 L 8.875 -10.25 C 9.90625 -10.25 10.671875 -10.5 11.171875 -11 C 11.679688 -11.5 11.9375 -12.191406 11.9375 -13.078125 C 11.9375 -13.953125 11.679688 -14.628906 11.171875 -15.109375 C 10.671875 -15.585938 9.90625 -15.828125 8.875 -15.828125 L 5.6875 -15.828125 Z M 5.6875 -10.25 "/></g></g></g><g fill="#16aee8" fill-opacity="1"><g transform="translate(136.527231, 245.470882)"><g><path d="M 13.515625 -3.625 L 5.953125 -3.625 L 4.703125 0 L 0.703125 0 L 7.53125 -19.015625 L 11.96875 -19.015625 L 18.796875 0 L 14.765625 0 Z M 12.484375 -6.671875 L 9.734375 -14.609375 L 6.984375 -6.671875 Z M 12.484375 -6.671875 "/></g></g></g><g fill="#16aee8" fill-opacity="1"><g transform="translate(156.001858, 245.470882)"><g><path d="M 13.59375 -18.984375 L 13.59375 -15.90625 L 5.6875 -15.90625 L 5.6875 -11.046875 L 11.75 -11.046875 L 11.75 -8.03125 L 5.6875 -8.03125 L 5.6875 0 L 1.875 0 L 1.875 -18.984375 Z M 13.59375 -18.984375 "/></g></g></g><g fill="#16aee8" fill-opacity="1"><g transform="translate(170.417442, 245.470882)"><g><path d="M 13.59375 -18.984375 L 13.59375 -15.90625 L 5.6875 -15.90625 L 5.6875 -11.046875 L 11.75 -11.046875 L 11.75 -8.03125 L 5.6875 -8.03125 L 5.6875 0 L 1.875 0 L 1.875 -18.984375 Z M 13.59375 -18.984375 "/></g></g></g><g fill="#16aee8" fill-opacity="1"><g transform="translate(184.833025, 245.470882)"><g><path d="M 5.6875 -18.984375 L 5.6875 0 L 1.875 0 L 1.875 -18.984375 Z M 5.6875 -18.984375 "/></g></g></g><g fill="#16aee8" fill-opacity="1"><g transform="translate(192.394399, 245.470882)"><g><path d="M 0.953125 -9.515625 C 0.953125 -11.390625 1.375 -13.0625 2.21875 -14.53125 C 3.0625 -16.007812 4.210938 -17.160156 5.671875 -17.984375 C 7.128906 -18.816406 8.765625 -19.234375 10.578125 -19.234375 C 12.703125 -19.234375 14.5625 -18.6875 16.15625 -17.59375 C 17.75 -16.507812 18.863281 -15.003906 19.5 -13.078125 L 15.125 -13.078125 C 14.6875 -13.984375 14.070312 -14.664062 13.28125 -15.125 C 12.5 -15.582031 11.59375 -15.8125 10.5625 -15.8125 C 9.445312 -15.8125 8.457031 -15.550781 7.59375 -15.03125 C 6.738281 -14.507812 6.070312 -13.773438 5.59375 -12.828125 C 5.113281 -11.890625 4.875 -10.785156 4.875 -9.515625 C 4.875 -8.265625 5.113281 -7.160156 5.59375 -6.203125 C 6.070312 -5.253906 6.738281 -4.519531 7.59375 -4 C 8.457031 -3.488281 9.445312 -3.234375 10.5625 -3.234375 C 11.59375 -3.234375 12.5 -3.460938 13.28125 -3.921875 C 14.070312 -4.390625 14.6875 -5.078125 15.125 -5.984375 L 19.5 -5.984375 C 18.863281 -4.046875 17.753906 -2.535156 16.171875 -1.453125 C 14.585938 -0.378906 12.722656 0.15625 10.578125 0.15625 C 8.765625 0.15625 7.128906 -0.253906 5.671875 -1.078125 C 4.210938 -1.898438 3.0625 -3.046875 2.21875 -4.515625 C 1.375 -5.984375 0.953125 -7.648438 0.953125 -9.515625 Z M 0.953125 -9.515625 "/></g></g></g><g fill="#16aee8" fill-opacity="1"><g transform="translate(213.28339, 245.470882)"><g/></g></g><g fill="#16aee8" fill-opacity="1"><g transform="translate(219.756798, 245.470882)"><g><path d="M 12.953125 -18.984375 L 12.953125 -5.65625 C 12.953125 -3.8125 12.414062 -2.375 11.34375 -1.34375 C 10.269531 -0.320312 8.835938 0.1875 7.046875 0.1875 C 5.234375 0.1875 3.769531 -0.335938 2.65625 -1.390625 C 1.539062 -2.441406 0.984375 -3.910156 0.984375 -5.796875 L 4.78125 -5.796875 C 4.800781 -4.972656 5 -4.332031 5.375 -3.875 C 5.75 -3.425781 6.285156 -3.203125 6.984375 -3.203125 C 7.679688 -3.203125 8.207031 -3.421875 8.5625 -3.859375 C 8.925781 -4.296875 9.109375 -4.894531 9.109375 -5.65625 L 9.109375 -18.984375 Z M 12.953125 -18.984375 "/></g></g></g><g fill="#16aee8" fill-opacity="1"><g transform="translate(235.260348, 245.470882)"><g><path d="M 13.515625 -3.625 L 5.953125 -3.625 L 4.703125 0 L 0.703125 0 L 7.53125 -19.015625 L 11.96875 -19.015625 L 18.796875 0 L 14.765625 0 Z M 12.484375 -6.671875 L 9.734375 -14.609375 L 6.984375 -6.671875 Z M 12.484375 -6.671875 "/></g></g></g><g fill="#16aee8" fill-opacity="1"><g transform="translate(254.734975, 245.470882)"><g><path d="M 22.578125 -18.984375 L 22.578125 0 L 18.765625 0 L 18.765625 -12.34375 L 13.6875 0 L 10.796875 0 L 5.6875 -12.34375 L 5.6875 0 L 1.875 0 L 1.875 -18.984375 L 6.203125 -18.984375 L 12.234375 -4.875 L 18.28125 -18.984375 Z M 22.578125 -18.984375 "/></g></g></g><g fill="#006e99" fill-opacity="1"><g transform="translate(168.122491, 265.250373)"><g><path d="M 1.953125 0.15625 C 1.765625 0.15625 1.613281 0.09375 1.5 -0.03125 C 1.394531 -0.15625 1.34375 -0.296875 1.34375 -0.453125 L 1.34375 -9.96875 C 1.34375 -10.164062 1.40625 -10.328125 1.53125 -10.453125 C 1.664062 -10.585938 1.832031 -10.65625 2.03125 -10.65625 C 2.21875 -10.65625 2.375 -10.601562 2.5 -10.5 C 2.632812 -10.394531 2.75 -10.269531 2.84375 -10.125 L 8.171875 -2.09375 L 8.25 -2.09375 L 8.25 -10.046875 C 8.25 -10.203125 8.300781 -10.34375 8.40625 -10.46875 C 8.507812 -10.59375 8.65625 -10.65625 8.84375 -10.65625 C 9.039062 -10.65625 9.191406 -10.59375 9.296875 -10.46875 C 9.398438 -10.34375 9.453125 -10.203125 9.453125 -10.046875 L 9.453125 -0.53125 C 9.453125 -0.332031 9.382812 -0.164062 9.25 -0.03125 C 9.125 0.09375 8.96875 0.15625 8.78125 0.15625 C 8.582031 0.15625 8.414062 0.101562 8.28125 0 C 8.15625 -0.101562 8.046875 -0.226562 7.953125 -0.375 L 2.625 -8.40625 L 2.546875 -8.40625 L 2.546875 -0.453125 C 2.546875 -0.296875 2.492188 -0.15625 2.390625 -0.03125 C 2.285156 0.09375 2.140625 0.15625 1.953125 0.15625 Z M 1.953125 0.15625 "/></g></g></g><g fill="#006e99" fill-opacity="1"><g transform="translate(183.362486, 265.250373)"><g><path d="M 4.203125 0.15625 C 4.015625 0.15625 3.863281 0.09375 3.75 -0.03125 C 3.644531 -0.15625 3.59375 -0.296875 3.59375 -0.453125 L 3.59375 -9.453125 L 0.75 -9.453125 C 0.5625 -9.453125 0.414062 -9.5 0.3125 -9.59375 C 0.207031 -9.695312 0.15625 -9.820312 0.15625 -9.96875 C 0.15625 -10.125 0.207031 -10.25 0.3125 -10.34375 C 0.414062 -10.445312 0.5625 -10.5 0.75 -10.5 L 7.65625 -10.5 C 7.84375 -10.5 7.988281 -10.445312 8.09375 -10.34375 C 8.195312 -10.25 8.25 -10.125 8.25 -9.96875 C 8.25 -9.820312 8.195312 -9.695312 8.09375 -9.59375 C 7.988281 -9.5 7.84375 -9.453125 7.65625 -9.453125 L 4.796875 -9.453125 L 4.796875 -0.453125 C 4.796875 -0.296875 4.742188 -0.15625 4.640625 -0.03125 C 4.535156 0.09375 4.390625 0.15625 4.203125 0.15625 Z M 4.203125 0.15625 "/></g></g></g><g fill="#006e99" fill-opacity="1"><g transform="translate(196.202483, 265.250373)"><g><path d="M 1.953125 0.15625 C 1.765625 0.15625 1.613281 0.09375 1.5 -0.03125 C 1.394531 -0.15625 1.34375 -0.296875 1.34375 -0.453125 L 1.34375 -10.046875 C 1.34375 -10.203125 1.394531 -10.34375 1.5 -10.46875 C 1.613281 -10.59375 1.765625 -10.65625 1.953125 -10.65625 C 2.140625 -10.65625 2.285156 -10.59375 2.390625 -10.46875 C 2.492188 -10.34375 2.546875 -10.203125 2.546875 -10.046875 L 2.546875 -5.921875 L 8.09375 -5.921875 L 8.09375 -10.046875 C 8.09375 -10.203125 8.144531 -10.34375 8.25 -10.46875 C 8.363281 -10.59375 8.515625 -10.65625 8.703125 -10.65625 C 8.890625 -10.65625 9.035156 -10.59375 9.140625 -10.46875 C 9.242188 -10.34375 9.296875 -10.203125 9.296875 -10.046875 L 9.296875 -0.453125 C 9.296875 -0.296875 9.242188 -0.15625 9.140625 -0.03125 C 9.035156 0.09375 8.890625 0.15625 8.703125 0.15625 C 8.515625 0.15625 8.363281 0.09375 8.25 -0.03125 C 8.144531 -0.15625 8.09375 -0.296875 8.09375 -0.453125 L 8.09375 -4.875 L 2.546875 -4.875 L 2.546875 -0.453125 C 2.546875 -0.296875 2.492188 -0.15625 2.390625 -0.03125 C 2.285156 0.09375 2.140625 0.15625 1.953125 0.15625 Z M 1.953125 0.15625 "/></g></g></g></svg>